<?xml version="1.0" encoding="UTF-8"?>
<svg version="1.1" xmlns="http://www.w3.org/2000/svg" width="604" height="551" viewBox="291 319 604 551">
<path d="M0 0 C1.09183594 0.44472656 2.18367188 0.88945312 3.30859375 1.34765625 C18.05002575 7.65207015 26.26710328 18.43513893 33.65478516 32.13183594 C37.71736728 39.63128661 42.11694819 46.91176871 46.5625 54.1875 C46.93428375 54.79639069 47.3060675 55.40528137 47.68911743 56.03262329 C49.14673546 58.41938882 50.60483117 60.80585968 52.06446838 63.19139099 C54.78008628 67.63149988 57.46183612 72.09080085 60.125 76.5625 C63.08720824 81.52048175 66.13752221 86.40742036 69.296875 91.2421875 C70.71675259 93.54134708 72.04075678 95.85300616 73.34375 98.21875 C76.02957484 103.09298734 78.87276698 107.86189279 81.75 112.625 C82.53769775 113.93368042 82.53769775 113.93368042 83.34130859 115.26879883 C84.89296012 117.84661868 86.44634207 120.42338907 88 123 C93.47714929 132.09274245 98.90308359 141.21323914 104.27734375 150.3671875 C107.27961247 155.47954652 110.29549033 160.58383013 113.3125 165.6875 C113.8600293 166.61377197 114.40755859 167.54004395 114.97167969 168.49438477 C116.08996082 170.38609472 117.20828789 172.27777752 118.32666016 174.16943359 C120.51184259 177.86581602 122.69633035 181.56260861 124.88061523 185.25952148 C125.96452113 187.09381119 127.04867019 188.92795723 128.13305664 190.76196289 C130.79698979 195.26798171 133.45738735 199.77600155 136.109375 204.2890625 C140.79853986 212.2602767 145.51040978 220.21579014 150.31640625 228.1171875 C150.68871368 228.72930084 151.06102112 229.34141418 151.4446106 229.97207642 C153.26382321 232.96098279 155.08625396 235.94787376 156.91308594 238.93212891 C160.5092516 244.82465167 164.05569877 250.74305184 167.51171875 256.71875 C167.86168411 257.31755981 168.21164948 257.91636963 168.57221985 258.5333252 C171 262.76593314 171 262.76593314 171 265 C169.07335518 266.49918986 167.1418187 267.88064909 165.125 269.25 C159.31842165 273.28981609 153.68861151 277.50701904 148.125 281.875 C141.73859213 286.88281717 135.29940603 291.80472439 128.78686523 296.6472168 C123.58185421 300.52984179 118.47503392 304.52766078 113.42675781 308.61206055 C110.94736138 310.59387339 109.04040725 311.98653092 106 313 C103.16764028 311.58382014 102.82561751 309.80067967 101.5 306.9375 C99.05507097 301.92362379 96.3658373 297.20643849 93.375 292.5 C89.64654889 286.62995695 86.00078572 280.72191998 82.4375 274.75 C77.59527425 266.64665115 72.71468336 258.56718053 67.8125 250.5 C67.45431183 249.91040497 67.09612366 249.32080994 66.7270813 248.71334839 C63.42633937 243.28024508 60.12395588 237.84814036 56.82080078 232.41650391 C54.67155907 228.88222562 52.52297994 225.34754528 50.375 221.8125 C49.84939484 220.94756424 49.84939484 220.94756424 49.31317139 220.06515503 C43.56321098 210.60049658 37.85168287 201.11337255 32.17138672 191.60668945 C29.18036503 186.6066768 26.16133651 181.62625235 23.1015625 176.66796875 C18.82202324 169.72971754 14.6244394 162.74431304 10.4375 155.75 C9.65250382 154.43997563 8.86742752 153.12999927 8.08227539 151.82006836 C6.49071648 149.16458659 4.89951311 146.50889232 3.30859375 143.85302734 C-0.76248695 137.05747707 -4.83957159 130.26552703 -8.91674805 123.47363281 C-11.58039306 119.0358054 -14.24223184 114.59696301 -16.89453125 110.15234375 C-17.53346313 109.08294556 -17.53346313 109.08294556 -18.18530273 107.99194336 C-18.95038295 106.71094819 -19.7143132 105.42926512 -20.47680664 104.14672852 C-22.0291493 101.41794926 -22.0291493 101.41794926 -24 99 C-24.40613525 99.68698975 -24.81227051 100.37397949 -25.23071289 101.08178711 C-35.5903582 118.59953352 -46.01986592 136.0737177 -56.51171875 153.51269531 C-63.63335865 165.35120218 -70.69956471 177.22188835 -77.74810791 189.10400391 C-84.05278495 199.73141838 -90.38371779 210.34244928 -96.75488281 220.93017578 C-98.67278241 224.11840182 -100.58625361 227.30927998 -102.5 230.5 C-103.03778076 231.395979 -103.03778076 231.395979 -103.58642578 232.31005859 C-105.6016322 235.6675444 -107.61449854 239.02641322 -109.625 242.38671875 C-110.58318472 243.98706815 -111.54152372 245.5873252 -112.5 247.1875 C-113.24382935 248.42959229 -113.24382935 248.42959229 -114.00268555 249.69677734 C-116.98826234 254.67351169 -119.99455263 259.63695114 -123.01953125 264.58984375 C-130.78813615 277.31390158 -138.44765838 290.08104128 -145.82739258 303.03564453 C-149.39210179 309.28038316 -153.08702484 315.42555751 -156.87329102 321.53833008 C-160.81699767 327.93002092 -164.61343979 334.41134348 -168.4375 340.875 C-170.03978757 343.58107126 -171.64273686 346.28674969 -173.24609375 348.9921875 C-173.64194672 349.66027939 -174.03779968 350.32837128 -174.44564819 351.01670837 C-177.49753192 356.16318035 -180.57347102 361.29490528 -183.65586853 366.42314148 C-186.26480149 370.76673334 -188.8565039 375.12022346 -191.4375 379.48046875 C-191.80635315 380.10351898 -192.1752063 380.72656921 -192.55523682 381.36849976 C-193.31299671 382.64858925 -194.07073776 383.9286899 -194.82846069 385.20880127 C-202.20683809 397.67068446 -209.65259388 410.08816038 -217.21679688 422.43823242 C-220.55861526 427.90966555 -223.82977227 433.41122842 -226.9921875 438.98828125 C-230.83547253 445.76583075 -234.8651088 452.41996023 -238.9375 459.0625 C-245.97473096 470.57874751 -252.84840747 482.18470166 -259.64233398 493.84594727 C-259.98752075 494.43794922 -260.33270752 495.02995117 -260.68835449 495.63989258 C-261.62075222 497.23982441 -262.55152394 498.84070352 -263.48217773 500.44165039 C-264.6009693 502.32741793 -265.783724 504.175586 -267 506 C-269.99035306 506.28606944 -272.77265438 506.37798899 -275.76416016 506.34057617 C-276.67153427 506.34101425 -277.57890839 506.34145233 -278.51377869 506.34190369 C-281.52242314 506.33980839 -284.53051502 506.31644244 -287.5390625 506.29296875 C-289.62128393 506.28737543 -291.7035093 506.28310409 -293.78573608 506.28010559 C-299.27346647 506.26863603 -304.76095969 506.23915067 -310.24859619 506.20599365 C-315.84538565 506.17533823 -321.44221333 506.16160995 -327.0390625 506.14648438 C-338.02614603 506.11428301 -349.01305331 506.06306119 -360 506 C-358.67439764 502.61372995 -357.24545817 499.52806119 -355.3828125 496.40234375 C-354.86509277 495.52980957 -354.34737305 494.65727539 -353.81396484 493.75830078 C-353.25660645 492.82743652 -352.69924805 491.89657227 -352.125 490.9375 C-351.54057129 489.95507324 -350.95614258 488.97264648 -350.35400391 487.96044922 C-346.23212713 481.038681 -342.0863712 474.13109972 -337.93286133 467.22827148 C-334.81097191 462.03513333 -331.70915282 456.83048486 -328.62109375 451.6171875 C-328.03976181 450.63588112 -328.03976181 450.63588112 -327.44668579 449.63475037 C-326.64389803 448.27956285 -325.84111283 446.92437382 -325.03833008 445.56918335 C-318.54660973 434.61125378 -312.00891592 423.68495534 -305.375 412.8125 C-298.80669513 402.04672349 -292.38994398 391.19860941 -286.03173828 380.30761719 C-281.508934 372.56186764 -276.93501765 364.84931688 -272.30639648 357.16625977 C-267.65325568 349.43853812 -263.06792772 341.67147916 -258.484375 333.90234375 C-255.00645543 328.00764941 -251.51753388 322.11950553 -248.02700806 316.23226929 C-237.51247266 298.49725093 -227.01852872 280.75095261 -216.60192871 262.95822144 C-211.36697613 254.01774879 -206.10193616 245.09585478 -200.8125 236.1875 C-193.98914747 224.69470072 -187.24473609 213.15735252 -180.51953125 201.60693359 C-173.4411784 189.46319135 -166.26630766 177.37621208 -159.09643555 165.28637695 C-155.39272173 159.04077439 -151.69513828 152.79163031 -148.00732422 146.53662109 C-142.71930984 137.57084617 -137.40390681 128.62157235 -132.0625 119.6875 C-131.14005493 118.1394165 -131.14005493 118.1394165 -130.19897461 116.56005859 C-127.03470544 111.27835913 -123.79344439 106.0900626 -120.29614258 101.02172852 C-118.89256308 98.83241945 -117.75057727 96.59300766 -116.625 94.25 C-114.1633542 89.16207604 -111.26059665 84.42568228 -108.26171875 79.63867188 C-106.08193049 76.1450447 -103.95067678 72.62315216 -101.8359375 69.08984375 C-101.45039703 68.44650085 -101.06485657 67.80315796 -100.66763306 67.14031982 C-97.83533547 62.40875711 -95.01975553 57.66740568 -92.2109375 52.921875 C-91.61430298 51.91407234 -91.61430298 51.91407234 -91.00561523 50.88591003 C-89.386516 48.15045071 -87.76760286 45.41488688 -86.15136719 42.67773438 C-63.24018129 3.88805274 -63.24018129 3.88805274 -40.421875 -2.75 C-27.75020603 -5.48161726 -11.7546846 -5.65966295 0 0 Z " fill="#02EADC" transform="translate(651,324)"/>
<path d="M0 0 C3.46360091 1.28494469 5.29325356 4.39934091 7.46704102 7.25292969 C7.98927246 7.92219482 8.51150391 8.59145996 9.04956055 9.28100586 C10.72092417 11.42979532 12.37665685 13.58990207 14.02954102 15.75292969 C15.0906975 17.13447193 16.15189493 18.51598273 17.21313477 19.89746094 C19.36085296 22.69907586 21.50137536 25.50604479 23.63891602 28.31542969 C27.86770358 33.86415683 32.15768474 39.36503744 36.44897461 44.86547852 C37.28162842 45.93318481 37.28162842 45.93318481 38.13110352 47.02246094 C38.6191748 47.64741455 39.10724609 48.27236816 39.61010742 48.91625977 C40.07852051 49.52236084 40.54693359 50.12846191 41.02954102 50.75292969 C41.60494629 51.40737061 42.18035156 52.06181152 42.77319336 52.73608398 C44.02954102 54.75292969 44.02954102 54.75292969 43.92260742 56.82714844 C42.85016385 59.13973315 41.79272716 60.06423279 39.74047852 61.56542969 C39.05381104 62.07734863 38.36714355 62.58926758 37.65966797 63.11669922 C36.91547607 63.65665527 36.17128418 64.19661133 35.40454102 64.75292969 C33.84222893 65.91549641 32.28105211 67.07959013 30.72094727 68.24511719 C29.93220215 68.83131836 29.14345703 69.41751953 28.33081055 70.02148438 C24.94376705 72.56985192 21.63935219 75.21506998 18.34204102 77.87792969 C17.10527389 78.87298496 15.86829636 79.86777878 14.63110352 80.86230469 C14.03072266 81.34505859 13.4303418 81.8278125 12.81176758 82.32519531 C6.15273076 87.65972234 -0.5812064 92.90128232 -7.32202148 98.13183594 C-8.85068585 99.31800997 -10.37933142 100.50420823 -11.90795898 101.69042969 C-12.67269531 102.28380127 -13.43743164 102.87717285 -14.2253418 103.48852539 C-19.64229615 107.6996036 -25.00459656 111.9737573 -30.34814453 116.27734375 C-35.08150274 120.07514831 -39.88897447 123.76856544 -44.72045898 127.44042969 C-50.32103073 131.69738891 -55.82866687 136.03512219 -61.24780273 140.52246094 C-64.95543811 143.55984946 -68.72960567 146.50869678 -72.50512695 149.4609375 C-76.79180569 152.81653617 -81.04222939 156.21453674 -85.28295898 159.62792969 C-90.59593364 163.89964721 -95.97753341 168.06926248 -101.40795898 172.19042969 C-107.69507682 176.96291397 -113.8488787 181.87121143 -119.95068359 186.87768555 C-124.71558248 190.77209093 -129.56583062 194.53647268 -134.47045898 198.25292969 C-140.83000194 203.07202094 -147.05507416 208.02888731 -153.2277832 213.08447266 C-158.31686507 217.24482548 -163.49222594 221.27220734 -168.71655273 225.26074219 C-172.38575159 228.06333495 -176.0244728 230.9042541 -179.65795898 233.75292969 C-180.25882324 234.22230957 -180.8596875 234.69168945 -181.47875977 235.17529297 C-183.74701367 236.95622926 -185.92918887 238.71165958 -187.97045898 240.75292969 C-190.97045898 240.75292969 -190.97045898 240.75292969 -192.33764648 239.45996094 C-192.83522461 238.83476563 -193.33280273 238.20957031 -193.84545898 237.56542969 C-197.18583687 233.56408341 -200.76102677 229.90599876 -204.47045898 226.25292969 C-208.59103622 222.18059052 -212.54755429 218.06308472 -216.29858398 213.64355469 C-218.98553187 210.60504353 -221.90832591 207.80750467 -224.79467773 204.95996094 C-226.71543283 203.0116187 -228.51088704 201.0229376 -230.28295898 198.94042969 C-233.82853844 194.79978794 -237.6834731 191.01178969 -241.55859375 187.18432617 C-244.98122803 183.78752716 -248.20314624 180.28540388 -251.32983398 176.61230469 C-253.13193687 174.56992141 -255.02984845 172.66391258 -256.97045898 170.75292969 C-259.50860697 168.25353205 -261.91174201 165.71511176 -264.22045898 163.00292969 C-267.30607532 159.40776203 -270.60243853 156.0795549 -273.97045898 152.75292969 C-277.23429785 149.52896059 -280.43876129 146.31775016 -283.40795898 142.81542969 C-287.05604071 138.52198706 -291.0625341 134.60565859 -295.08935547 130.67114258 C-297.97640249 127.82991471 -300.72150345 124.92875104 -303.36499023 121.85839844 C-307.0913467 117.5455719 -311.09152968 113.55549412 -315.15795898 109.56542969 C-323.48223955 101.39487545 -323.48223955 101.39487545 -326.97045898 96.75292969 C-325.38694219 92.39567107 -321.99103673 89.93006613 -318.53295898 87.06542969 C-317.58743164 86.26878906 -317.58743164 86.26878906 -316.62280273 85.45605469 C-312.05895451 81.62205264 -307.44188213 77.85326141 -302.81420898 74.09667969 C-299.49358334 71.35990031 -296.23029883 68.56155623 -292.97045898 65.75292969 C-288.62153767 62.01254833 -284.26085806 58.28976732 -279.84545898 54.62792969 C-278.99725586 53.92410156 -278.14905273 53.22027344 -277.27514648 52.49511719 C-275.21524788 50.9379735 -273.2848404 49.86414939 -270.97045898 48.75292969 C-264.70092773 55.44042969 -258.43139648 62.12792969 -252.16186523 68.81542969 C-251.55109131 69.46688965 -250.94031738 70.11834961 -250.31103516 70.78955078 C-249.07799521 72.10485881 -247.8450863 73.42028969 -246.61230469 74.73583984 C-243.41443511 78.14807073 -240.21409282 81.55792858 -237.00952148 84.96386719 C-226.14512939 96.51814751 -226.14512939 96.51814751 -221.53295898 101.69042969 C-216.7908806 107.00621887 -211.89016062 112.16954211 -206.9987793 117.34741211 C-202.04537821 122.5956585 -197.15117658 127.89229612 -192.30249023 133.23730469 C-190.64370207 135.02668422 -188.92533376 136.76161401 -187.16967773 138.45605469 C-184.97045898 140.75292969 -184.97045898 140.75292969 -184.97045898 142.75292969 C-177.05285499 137.11365664 -169.38506385 131.2120721 -161.76879883 125.17626953 C-158.84252847 122.86020163 -155.90608711 120.55711617 -152.97045898 118.25292969 C-151.80374147 117.33632775 -150.63707484 116.41966102 -149.47045898 115.50292969 C-142.47045898 110.00292969 -135.47045898 104.50292969 -128.47045898 99.00292969 C-127.89328125 98.54942139 -127.31610352 98.09591309 -126.72143555 97.62866211 C-125.55155883 96.70949656 -124.38163675 95.79038874 -123.21166992 94.87133789 C-120.34374742 92.61836875 -117.47654908 90.36449246 -114.61108398 88.10839844 C-108.86807741 83.58861653 -103.11375669 79.08437319 -97.33935547 74.60473633 C-90.28198824 69.12961784 -83.26631054 63.60980205 -76.30493164 58.01318359 C-71.84809502 54.4369461 -67.34046501 50.93372101 -62.80200195 47.46191406 C-58.93884574 44.50490128 -55.10421574 41.51386436 -51.28295898 38.50292969 C-45.86171178 34.23185258 -40.420939 29.98663587 -34.97045898 25.75292969 C-29.46167264 21.47239479 -23.95847971 17.18506088 -18.47045898 12.87792969 C-17.90536621 12.43674805 -17.34027344 11.99556641 -16.75805664 11.54101562 C-14.13854205 9.48961648 -11.56598835 7.41068531 -9.02514648 5.26074219 C-8.14084961 4.51566406 -7.25655273 3.77058594 -6.34545898 3.00292969 C-5.59006836 2.34808594 -4.83467773 1.69324219 -4.05639648 1.01855469 C-1.97045898 -0.24707031 -1.97045898 -0.24707031 0 0 Z " fill="#03142A" transform="translate(850.970458984375,629.2470703125)"/>
<path d="M0 0 C0.66 0 1.32 0 2 0 C1.71640625 0.56203125 1.4328125 1.1240625 1.140625 1.703125 C0.38428415 3.22616754 -0.35556919 4.75751696 -1.078125 6.296875 C-3.82911529 12.05561467 -6.97542585 17.04880568 -11 22 C-11 18.84583683 -10.61748039 17.9568079 -9.1015625 15.3125 C-8.70453125 14.61382813 -8.3075 13.91515625 -7.8984375 13.1953125 C-7.47820312 12.47085938 -7.05796875 11.74640625 -6.625 11 C-6.2125 10.27554688 -5.8 9.55109375 -5.375 8.8046875 C-3.6579929 5.80269444 -1.91968137 2.87952206 0 0 Z " fill="#D1FBFA" transform="translate(513,612)"/>
<path d="M0 0 C4.52615993 3.67832017 8.39424999 7.41086363 12 12 C9 12 9 12 6.73828125 9.8828125 C5.93777344 8.97273437 5.13726563 8.06265625 4.3125 7.125 C3.50425781 6.22007812 2.69601562 5.31515625 1.86328125 4.3828125 C0 2 0 2 0 0 Z " fill="#192034" transform="translate(654,759)"/>
<path d="M0 0 C1.12894876 0.93274109 2.25300876 1.87140122 3.375 2.8125 C4.00148438 3.33457031 4.62796875 3.85664062 5.2734375 4.39453125 C7 6 7 6 9 9 C6 9 6 9 4.39453125 7.5390625 C3.61142578 6.59160156 3.61142578 6.59160156 2.8125 5.625 C2.28269531 4.99851562 1.75289062 4.37203125 1.20703125 3.7265625 C0 2 0 2 0 0 Z " fill="#DFE2E5" transform="translate(583,680)"/>
<path d="M0 0 C0.99 0.33 1.98 0.66 3 1 C-1.75 5.875 -1.75 5.875 -4 7 C-4.66 6.34 -5.32 5.68 -6 5 C-1.60546875 0.99609375 -1.60546875 0.99609375 0 0 Z " fill="#182336" transform="translate(711,737)"/>
<path d="M0 0 C0.66 0.33 1.32 0.66 2 1 C-0.57784846 3.64752004 -2.91648098 5.94432065 -6 8 C-6 5 -6 5 -4.6875 3.61328125 C-3.125 2.40885417 -1.5625 1.20442708 0 0 Z " fill="#E0E4E8" transform="translate(785,772)"/>
<path d="M0 0 C2.97 1.98 2.97 1.98 6 4 C5.67 4.99 5.34 5.98 5 7 C3.29115995 5.37660195 1.62553283 3.70680947 0 2 C0 1.34 0 0.68 0 0 Z " fill="#1C2739" transform="translate(527,727)"/>
<path d="M0 0 C0.33 0.99 0.66 1.98 1 3 C-0.3125 5.5 -0.3125 5.5 -2 8 C-2.66 8.99 -3.32 9.98 -4 11 C-5 8 -5 8 -4.00390625 5.95703125 C-3.52824219 5.24933594 -3.05257812 4.54164063 -2.5625 3.8125 C-2.08941406 3.09707031 -1.61632812 2.38164063 -1.12890625 1.64453125 C-0.75636719 1.10183594 -0.38382813 0.55914063 0 0 Z " fill="#CEFBF9" transform="translate(543,562)"/>
<path d="M0 0 C2.475 0.495 2.475 0.495 5 1 C5 1.99 5 2.98 5 4 C5.66 4.33 6.32 4.66 7 5 C4.625 4.75 4.625 4.75 2 4 C0.6875 1.9375 0.6875 1.9375 0 0 Z " fill="#060F1F" transform="translate(655,862)"/>
<path d="M0 0 C0.66 0.33 1.32 0.66 2 1 C0.35 2.65 -1.3 4.3 -3 6 C-3.99 5.67 -4.98 5.34 -6 5 C-4.02 3.35 -2.04 1.7 0 0 Z " fill="#DEE2E6" transform="translate(756,795)"/>
<path d="M0 0 C0.66 0.33 1.32 0.66 2 1 C0.35 2.65 -1.3 4.3 -3 6 C-3.99 5.67 -4.98 5.34 -6 5 C-4.02 3.35 -2.04 1.7 0 0 Z " fill="#E3E6EA" transform="translate(803,758)"/>
<path d="M0 0 C0.99 0.33 1.98 0.66 3 1 C1.25 3.0625 1.25 3.0625 -1 5 C-3.25 4.75 -3.25 4.75 -5 4 C-2.6875 1.9375 -2.6875 1.9375 0 0 Z " fill="#172236" transform="translate(687,756)"/>
</svg>